<svg xmlns="http://www.w3.org/2000/svg" viewBox="0 0 672 392" width="672" height="392" role="img" aria-label="Vox">
  <rect width="672" height="392" rx="24" fill="#000000"/>
  <g fill="#ffffff">
    <circle cx="28" cy="28" r="3.2"/>
    <circle cx="56" cy="28" r="3.2"/>
    <circle cx="84" cy="28" r="3.2"/>
    <circle cx="112" cy="28" r="3.2"/>
    <circle cx="140" cy="28" r="3.2"/>
    <circle cx="168" cy="28" r="3.2"/>
    <circle cx="196" cy="28" r="3.2"/>
    <circle cx="224" cy="28" r="3.2"/>
    <circle cx="252" cy="28" r="3.2"/>
    <circle cx="280" cy="28" r="3.2"/>
    <circle cx="308" cy="28" r="3.2"/>
    <circle cx="336" cy="28" r="3.2"/>
    <circle cx="364" cy="28" r="3.2"/>
    <circle cx="392" cy="28" r="3.2"/>
    <circle cx="420" cy="28" r="3.2"/>
    <circle cx="448" cy="28" r="3.2"/>
    <circle cx="476" cy="28" r="3.2"/>
    <circle cx="504" cy="28" r="3.2"/>
    <circle cx="532" cy="28" r="3.2"/>
    <circle cx="560" cy="28" r="3.2"/>
    <circle cx="588" cy="28" r="3.2"/>
    <circle cx="616" cy="28" r="3.2"/>
    <circle cx="644" cy="28" r="3.2"/>
    <circle cx="28" cy="56" r="3.2"/>
    <circle cx="56" cy="56" r="3.2"/>
    <circle cx="84" cy="56" r="3.2"/>
    <circle cx="112" cy="56" r="3.2"/>
    <circle cx="140" cy="56" r="3.2"/>
    <circle cx="168" cy="56" r="3.2"/>
    <circle cx="196" cy="56" r="3.2"/>
    <circle cx="224" cy="56" r="3.2"/>
    <circle cx="252" cy="56" r="3.2"/>
    <circle cx="280" cy="56" r="3.2"/>
    <circle cx="308" cy="56" r="3.2"/>
    <circle cx="336" cy="56" r="3.2"/>
    <circle cx="364" cy="56" r="3.2"/>
    <circle cx="392" cy="56" r="3.2"/>
    <circle cx="420" cy="56" r="3.2"/>
    <circle cx="448" cy="56" r="3.2"/>
    <circle cx="476" cy="56" r="3.2"/>
    <circle cx="504" cy="56" r="3.2"/>
    <circle cx="532" cy="56" r="3.2"/>
    <circle cx="560" cy="56" r="3.2"/>
    <circle cx="588" cy="56" r="3.2"/>
    <circle cx="616" cy="56" r="3.2"/>
    <circle cx="644" cy="56" r="3.2"/>
    <circle cx="28" cy="84" r="3.2"/>
    <circle cx="56" cy="84" r="3.2"/>
    <circle cx="84" cy="84" r="3.2"/>
    <circle cx="112" cy="84" r="3.2"/>
    <circle cx="140" cy="84" r="3.2"/>
    <circle cx="168" cy="84" r="3.2"/>
    <circle cx="196" cy="84" r="3.2"/>
    <circle cx="224" cy="84" r="3.2"/>
    <circle cx="252" cy="84" r="3.2"/>
    <circle cx="280" cy="84" r="3.2"/>
    <circle cx="308" cy="84" r="3.2"/>
    <circle cx="336" cy="84" r="3.2"/>
    <circle cx="364" cy="84" r="3.2"/>
    <circle cx="392" cy="84" r="3.2"/>
    <circle cx="420" cy="84" r="3.2"/>
    <circle cx="448" cy="84" r="3.2"/>
    <circle cx="476" cy="84" r="3.2"/>
    <circle cx="504" cy="84" r="3.2"/>
    <circle cx="532" cy="84" r="3.2"/>
    <circle cx="560" cy="84" r="3.2"/>
    <circle cx="588" cy="84" r="3.2"/>
    <circle cx="616" cy="84" r="3.2"/>
    <circle cx="644" cy="84" r="3.2"/>
    <circle cx="28" cy="112" r="3.2"/>
    <circle cx="56" cy="112" r="3.2"/>
    <circle cx="84" cy="112" r="6.6"/>
    <circle cx="112" cy="112" r="6.6"/>
    <circle cx="140" cy="112" r="6.6"/>
    <circle cx="168" cy="112" r="3.2"/>
    <circle cx="196" cy="112" r="6.6"/>
    <circle cx="224" cy="112" r="6.6"/>
    <circle cx="252" cy="112" r="6.6"/>
    <circle cx="280" cy="112" r="6.6"/>
    <circle cx="308" cy="112" r="6.6"/>
    <circle cx="336" cy="112" r="6.6"/>
    <circle cx="364" cy="112" r="6.6"/>
    <circle cx="392" cy="112" r="6.6"/>
    <circle cx="420" cy="112" r="6.6"/>
    <circle cx="448" cy="112" r="6.6"/>
    <circle cx="476" cy="112" r="6.6"/>
    <circle cx="504" cy="112" r="3.2"/>
    <circle cx="532" cy="112" r="6.6"/>
    <circle cx="560" cy="112" r="6.6"/>
    <circle cx="588" cy="112" r="6.6"/>
    <circle cx="616" cy="112" r="3.2"/>
    <circle cx="644" cy="112" r="3.2"/>
    <circle cx="28" cy="140" r="3.2"/>
    <circle cx="56" cy="140" r="3.2"/>
    <circle cx="84" cy="140" r="6.6"/>
    <circle cx="112" cy="140" r="10.6"/>
    <circle cx="140" cy="140" r="6.6"/>
    <circle cx="168" cy="140" r="3.2"/>
    <circle cx="196" cy="140" r="6.6"/>
    <circle cx="224" cy="140" r="10.6"/>
    <circle cx="252" cy="140" r="6.6"/>
    <circle cx="280" cy="140" r="6.6"/>
    <circle cx="308" cy="140" r="10.6"/>
    <circle cx="336" cy="140" r="10.6"/>
    <circle cx="364" cy="140" r="10.6"/>
    <circle cx="392" cy="140" r="6.6"/>
    <circle cx="420" cy="140" r="6.6"/>
    <circle cx="448" cy="140" r="10.6"/>
    <circle cx="476" cy="140" r="6.6"/>
    <circle cx="504" cy="140" r="6.6"/>
    <circle cx="532" cy="140" r="6.6"/>
    <circle cx="560" cy="140" r="10.6"/>
    <circle cx="588" cy="140" r="6.6"/>
    <circle cx="616" cy="140" r="3.2"/>
    <circle cx="644" cy="140" r="3.2"/>
    <circle cx="28" cy="168" r="3.2"/>
    <circle cx="56" cy="168" r="3.2"/>
    <circle cx="84" cy="168" r="6.6"/>
    <circle cx="112" cy="168" r="10.6"/>
    <circle cx="140" cy="168" r="6.6"/>
    <circle cx="168" cy="168" r="3.2"/>
    <circle cx="196" cy="168" r="6.6"/>
    <circle cx="224" cy="168" r="10.6"/>
    <circle cx="252" cy="168" r="6.6"/>
    <circle cx="280" cy="168" r="10.6"/>
    <circle cx="308" cy="168" r="6.6"/>
    <circle cx="336" cy="168" r="6.6"/>
    <circle cx="364" cy="168" r="6.6"/>
    <circle cx="392" cy="168" r="10.6"/>
    <circle cx="420" cy="168" r="6.6"/>
    <circle cx="448" cy="168" r="6.6"/>
    <circle cx="476" cy="168" r="10.6"/>
    <circle cx="504" cy="168" r="6.6"/>
    <circle cx="532" cy="168" r="10.6"/>
    <circle cx="560" cy="168" r="6.6"/>
    <circle cx="588" cy="168" r="6.6"/>
    <circle cx="616" cy="168" r="3.2"/>
    <circle cx="644" cy="168" r="3.2"/>
    <circle cx="28" cy="196" r="3.2"/>
    <circle cx="56" cy="196" r="3.2"/>
    <circle cx="84" cy="196" r="6.6"/>
    <circle cx="112" cy="196" r="10.6"/>
    <circle cx="140" cy="196" r="6.6"/>
    <circle cx="168" cy="196" r="6.6"/>
    <circle cx="196" cy="196" r="6.6"/>
    <circle cx="224" cy="196" r="10.6"/>
    <circle cx="252" cy="196" r="6.6"/>
    <circle cx="280" cy="196" r="10.6"/>
    <circle cx="308" cy="196" r="6.6"/>
    <circle cx="336" cy="196" r="3.2"/>
    <circle cx="364" cy="196" r="6.6"/>
    <circle cx="392" cy="196" r="10.6"/>
    <circle cx="420" cy="196" r="6.6"/>
    <circle cx="448" cy="196" r="6.6"/>
    <circle cx="476" cy="196" r="6.6"/>
    <circle cx="504" cy="196" r="10.6"/>
    <circle cx="532" cy="196" r="6.6"/>
    <circle cx="560" cy="196" r="6.6"/>
    <circle cx="588" cy="196" r="3.2"/>
    <circle cx="616" cy="196" r="3.2"/>
    <circle cx="644" cy="196" r="3.2"/>
    <circle cx="28" cy="224" r="3.2"/>
    <circle cx="56" cy="224" r="3.2"/>
    <circle cx="84" cy="224" r="6.6"/>
    <circle cx="112" cy="224" r="6.6"/>
    <circle cx="140" cy="224" r="10.6"/>
    <circle cx="168" cy="224" r="6.6"/>
    <circle cx="196" cy="224" r="10.6"/>
    <circle cx="224" cy="224" r="6.6"/>
    <circle cx="252" cy="224" r="6.6"/>
    <circle cx="280" cy="224" r="10.6"/>
    <circle cx="308" cy="224" r="6.6"/>
    <circle cx="336" cy="224" r="6.6"/>
    <circle cx="364" cy="224" r="6.6"/>
    <circle cx="392" cy="224" r="10.6"/>
    <circle cx="420" cy="224" r="6.6"/>
    <circle cx="448" cy="224" r="6.6"/>
    <circle cx="476" cy="224" r="10.6"/>
    <circle cx="504" cy="224" r="6.6"/>
    <circle cx="532" cy="224" r="10.6"/>
    <circle cx="560" cy="224" r="6.6"/>
    <circle cx="588" cy="224" r="6.6"/>
    <circle cx="616" cy="224" r="3.2"/>
    <circle cx="644" cy="224" r="3.2"/>
    <circle cx="28" cy="252" r="3.2"/>
    <circle cx="56" cy="252" r="3.2"/>
    <circle cx="84" cy="252" r="3.2"/>
    <circle cx="112" cy="252" r="6.6"/>
    <circle cx="140" cy="252" r="6.6"/>
    <circle cx="168" cy="252" r="10.6"/>
    <circle cx="196" cy="252" r="6.6"/>
    <circle cx="224" cy="252" r="6.6"/>
    <circle cx="252" cy="252" r="6.6"/>
    <circle cx="280" cy="252" r="6.6"/>
    <circle cx="308" cy="252" r="10.6"/>
    <circle cx="336" cy="252" r="10.6"/>
    <circle cx="364" cy="252" r="10.6"/>
    <circle cx="392" cy="252" r="6.6"/>
    <circle cx="420" cy="252" r="6.6"/>
    <circle cx="448" cy="252" r="10.6"/>
    <circle cx="476" cy="252" r="6.6"/>
    <circle cx="504" cy="252" r="6.6"/>
    <circle cx="532" cy="252" r="6.6"/>
    <circle cx="560" cy="252" r="10.6"/>
    <circle cx="588" cy="252" r="6.6"/>
    <circle cx="616" cy="252" r="3.2"/>
    <circle cx="644" cy="252" r="3.2"/>
    <circle cx="28" cy="280" r="3.2"/>
    <circle cx="56" cy="280" r="3.2"/>
    <circle cx="84" cy="280" r="3.2"/>
    <circle cx="112" cy="280" r="3.2"/>
    <circle cx="140" cy="280" r="6.6"/>
    <circle cx="168" cy="280" r="6.6"/>
    <circle cx="196" cy="280" r="6.6"/>
    <circle cx="224" cy="280" r="3.2"/>
    <circle cx="252" cy="280" r="3.2"/>
    <circle cx="280" cy="280" r="6.6"/>
    <circle cx="308" cy="280" r="6.6"/>
    <circle cx="336" cy="280" r="6.6"/>
    <circle cx="364" cy="280" r="6.6"/>
    <circle cx="392" cy="280" r="6.6"/>
    <circle cx="420" cy="280" r="6.6"/>
    <circle cx="448" cy="280" r="6.6"/>
    <circle cx="476" cy="280" r="6.6"/>
    <circle cx="504" cy="280" r="3.2"/>
    <circle cx="532" cy="280" r="6.6"/>
    <circle cx="560" cy="280" r="6.6"/>
    <circle cx="588" cy="280" r="6.6"/>
    <circle cx="616" cy="280" r="3.2"/>
    <circle cx="644" cy="280" r="3.2"/>
    <circle cx="28" cy="308" r="3.2"/>
    <circle cx="56" cy="308" r="3.2"/>
    <circle cx="84" cy="308" r="3.2"/>
    <circle cx="112" cy="308" r="3.2"/>
    <circle cx="140" cy="308" r="3.2"/>
    <circle cx="168" cy="308" r="3.2"/>
    <circle cx="196" cy="308" r="3.2"/>
    <circle cx="224" cy="308" r="3.2"/>
    <circle cx="252" cy="308" r="3.2"/>
    <circle cx="280" cy="308" r="3.2"/>
    <circle cx="308" cy="308" r="3.2"/>
    <circle cx="336" cy="308" r="3.2"/>
    <circle cx="364" cy="308" r="3.2"/>
    <circle cx="392" cy="308" r="3.2"/>
    <circle cx="420" cy="308" r="3.2"/>
    <circle cx="448" cy="308" r="3.2"/>
    <circle cx="476" cy="308" r="3.2"/>
    <circle cx="504" cy="308" r="3.2"/>
    <circle cx="532" cy="308" r="3.2"/>
    <circle cx="560" cy="308" r="3.2"/>
    <circle cx="588" cy="308" r="3.2"/>
    <circle cx="616" cy="308" r="3.2"/>
    <circle cx="644" cy="308" r="3.2"/>
    <circle cx="28" cy="336" r="3.2"/>
    <circle cx="56" cy="336" r="3.2"/>
    <circle cx="84" cy="336" r="3.2"/>
    <circle cx="112" cy="336" r="3.2"/>
    <circle cx="140" cy="336" r="3.2"/>
    <circle cx="168" cy="336" r="3.2"/>
    <circle cx="196" cy="336" r="3.2"/>
    <circle cx="224" cy="336" r="3.2"/>
    <circle cx="252" cy="336" r="3.2"/>
    <circle cx="280" cy="336" r="3.2"/>
    <circle cx="308" cy="336" r="3.2"/>
    <circle cx="336" cy="336" r="3.2"/>
    <circle cx="364" cy="336" r="3.2"/>
    <circle cx="392" cy="336" r="3.2"/>
    <circle cx="420" cy="336" r="3.2"/>
    <circle cx="448" cy="336" r="3.2"/>
    <circle cx="476" cy="336" r="3.2"/>
    <circle cx="504" cy="336" r="3.2"/>
    <circle cx="532" cy="336" r="3.2"/>
    <circle cx="560" cy="336" r="3.2"/>
    <circle cx="588" cy="336" r="3.2"/>
    <circle cx="616" cy="336" r="3.2"/>
    <circle cx="644" cy="336" r="3.2"/>
    <circle cx="28" cy="364" r="3.2"/>
    <circle cx="56" cy="364" r="3.2"/>
    <circle cx="84" cy="364" r="3.2"/>
    <circle cx="112" cy="364" r="3.2"/>
    <circle cx="140" cy="364" r="3.2"/>
    <circle cx="168" cy="364" r="3.2"/>
    <circle cx="196" cy="364" r="3.2"/>
    <circle cx="224" cy="364" r="3.2"/>
    <circle cx="252" cy="364" r="3.2"/>
    <circle cx="280" cy="364" r="3.2"/>
    <circle cx="308" cy="364" r="3.2"/>
    <circle cx="336" cy="364" r="3.2"/>
    <circle cx="364" cy="364" r="3.2"/>
    <circle cx="392" cy="364" r="3.2"/>
    <circle cx="420" cy="364" r="3.2"/>
    <circle cx="448" cy="364" r="3.2"/>
    <circle cx="476" cy="364" r="3.2"/>
    <circle cx="504" cy="364" r="3.2"/>
    <circle cx="532" cy="364" r="3.2"/>
    <circle cx="560" cy="364" r="3.2"/>
    <circle cx="588" cy="364" r="3.2"/>
    <circle cx="616" cy="364" r="3.2"/>
    <circle cx="644" cy="364" r="3.2"/>
  </g>
</svg>
